<?xml version="1.0" encoding="iso-8859-1"?>
<!-- Uploaded to: SVG Repo, www.svgrepo.com, Generator: SVG Repo Mixer Tools -->
<svg version="1.1" id="Layer_1" xmlns="http://www.w3.org/2000/svg" xmlns:xlink="http://www.w3.org/1999/xlink" 
	 viewBox="0 0 512 512" xml:space="preserve">
<path d="M0,346.68v-310c0-5.504,4.704-10,10.448-10h491.104c5.744,0,10.448,4.496,10.448,10v310H0z"/>
<g>
	<path style="fill:#999999;" d="M512,346.68v42.664c0,5.88-4.704,10.672-10.448,10.672H10.448C4.704,400.016,0,395.224,0,389.352
		v-42.664L512,346.68L512,346.68z"/>
	<polygon style="fill:#999999;" points="181.336,474.68 330.664,474.68 320,400.016 192,400.016 	"/>
</g>
<g>
	<polygon style="fill:#636363;" points="320,400.016 192,400.016 185.352,446.56 322.488,417.416 	"/>
	<rect x="144" y="474.656" style="fill:#636363;" width="224" height="10.664"/>
</g>
<rect x="62.448" y="71.088" style="fill:#E50914;" width="175.616" height="99.896"/>
<rect x="62.448" y="202.384" style="fill:#FFFFFF;" width="175.616" height="99.896"/>
<rect x="273.92" y="71.088" style="fill:#E50914;" width="175.616" height="99.896"/>
<rect x="273.92" y="202.384" style="fill:#FFFFFF;" width="175.616" height="99.896"/>
</svg>